<svg width="189" height="191" viewBox="0 0 189 191" fill="none" xmlns="http://www.w3.org/2000/svg">
<ellipse cx="94.5" cy="95.4742" rx="94.5" ry="95.4742" fill="black"/>
<ellipse cx="94.5" cy="95.4742" rx="94.5" ry="95.4742" fill="black"/>
<g clip-path="url(#clip0_7_43)">
<path d="M94.5 54.0612C90.3014 54.0612 53.5096 53.6471 53.5096 39.2709C53.5096 24.8947 90.3014 24.4805 94.5 24.4805C98.6986 24.4805 135.49 24.8947 135.49 39.2709C135.49 53.6471 98.6986 54.0612 94.5 54.0612ZM62.6681 39.2709C65.4261 41.6432 76.9971 45.187 94.5 45.187C112.003 45.187 123.574 41.6432 126.332 39.2709C123.574 36.8985 112.003 33.3547 94.5 33.3547C76.9971 33.3547 65.4261 36.8985 62.6681 39.2709ZM126.83 39.827H126.888H126.83Z" fill="white"/>
<path d="M94.5 77.7257C90.3014 77.7257 53.5096 77.3116 53.5096 62.9354C53.5096 60.4861 55.4772 58.4983 57.9015 58.4983C60.3257 58.4983 62.2933 60.4861 62.2933 62.9354C63.5757 64.7043 75.5742 68.8515 94.5 68.8515C113.426 68.8515 125.424 64.7043 126.83 62.3793C126.83 59.9241 128.733 58.2202 131.157 58.2202C133.587 58.2202 135.49 60.4861 135.49 62.9354C135.49 77.3116 98.6986 77.7257 94.5 77.7257Z" fill="white"/>
<path d="M94.5 101.39C90.3014 101.39 53.5096 100.976 53.5096 86.6C53.5096 84.1507 55.4772 82.1629 57.9015 82.1629C60.3257 82.1629 62.2933 84.1507 62.2933 86.6C63.5757 88.3689 75.5742 92.5161 94.5 92.5161C113.426 92.5161 125.424 88.3689 126.83 86.0439C126.83 83.5887 128.733 81.8848 131.157 81.8848C133.587 81.8848 135.49 84.1507 135.49 86.6C135.49 100.976 98.6986 101.39 94.5 101.39V101.39Z" fill="white"/>
<path d="M124.247 120.736C121.823 120.736 119.826 118.748 119.826 116.299C119.826 114.276 121.15 112.566 122.977 112.033C126.191 110.714 126.818 109.72 126.824 109.708L126.707 39.2709C126.707 36.8216 128.674 34.8338 131.099 34.8338C133.523 34.8338 135.49 36.8216 135.49 39.2709V110.265C135.49 114.477 132.246 117.902 125.852 120.428C125.342 120.63 124.798 120.736 124.247 120.736V120.736Z" fill="white"/>
<path d="M64.5185 120.618C63.9797 120.618 63.4352 120.517 62.9081 120.31C55.1375 117.216 53.5096 113.14 53.5096 110.265L53.5096 39.2709C53.5096 36.8216 55.4772 34.8338 57.9015 34.8338C60.3257 34.8338 62.2933 36.8216 62.2933 39.2709L62.2933 110.265C62.346 109.963 63.4 110.974 66.1288 112.051C68.3833 112.95 69.49 115.524 68.6058 117.808C67.9207 119.553 66.2694 120.618 64.5185 120.618V120.618Z" fill="white"/>
<path d="M95.9639 166.468H93.036C87.3852 166.468 82.7884 161.824 82.7884 156.115V141.324C82.7884 135.615 87.3852 130.971 93.036 130.971H95.9639C101.615 130.971 106.212 135.615 106.212 141.324V156.115C106.212 161.824 101.615 166.468 95.9639 166.468ZM93.036 139.845C92.2279 139.845 91.5721 140.508 91.5721 141.324V156.115C91.5721 156.931 92.2279 157.594 93.036 157.594H95.9639C96.772 157.594 97.4279 156.931 97.4279 156.115V141.324C97.4279 140.508 96.772 139.845 95.9639 139.845H93.036Z" fill="white"/>
<path d="M101.82 166.468C100.695 166.468 99.5711 166.036 98.7161 165.166L92.8604 159.25C91.1446 157.517 91.1446 154.707 92.8604 152.973C94.5761 151.24 97.3576 151.24 99.0733 152.973L104.929 158.889C106.645 160.623 106.645 163.433 104.929 165.166C104.068 166.036 102.944 166.468 101.82 166.468Z" fill="white"/>
<path d="M60.5834 166.468H52.0456C49.6214 166.468 47.6538 164.48 47.6538 162.031C47.6538 159.581 49.6214 157.594 52.0456 157.594H60.5834C61.5086 157.594 62.2932 156.576 62.2932 155.375C62.2932 154.174 61.5086 153.157 60.5834 153.157H58.1474C52.3619 153.157 47.6538 148.181 47.6538 142.064C47.6538 135.946 52.3619 130.971 58.1474 130.971H66.6851C69.1093 130.971 71.0769 132.959 71.0769 135.408C71.0769 137.857 69.1093 139.845 66.6851 139.845H58.1474C57.2221 139.845 56.4375 140.863 56.4375 142.064C56.4375 143.265 57.2221 144.282 58.1474 144.282H60.5834C66.3689 144.282 71.0769 149.258 71.0769 155.375C71.0769 161.492 66.3689 166.468 60.5834 166.468Z" fill="white"/>
<path d="M136.954 166.468H122.315C119.891 166.468 117.923 164.48 117.923 162.031V135.408C117.923 132.959 119.891 130.971 122.315 130.971C124.739 130.971 126.707 132.959 126.707 135.408V157.594H136.954C139.379 157.594 141.346 159.581 141.346 162.031C141.346 164.48 139.379 166.468 136.954 166.468Z" fill="white"/>
</g>
<defs>
<clipPath id="clip0_7_43">
<rect width="140.538" height="141.987" fill="white" transform="translate(24.2308 24.4805)"/>
</clipPath>
</defs>
</svg>
