<?xml version="1.0" encoding="UTF-8" standalone="no"?>
<!-- Created with Inkscape (http://www.inkscape.org/) -->

<svg
   version="1.1"
   id="svg5537"
   width="1600"
   height="1600"
   viewBox="0 0 1600 1600"
   sodipodi:docname="shooter-silhouette-pdv.svg"
   inkscape:version="1.2 (dc2aedaf03, 2022-05-15)"
   xmlns:inkscape="http://www.inkscape.org/namespaces/inkscape"
   xmlns:sodipodi="http://sodipodi.sourceforge.net/DTD/sodipodi-0.dtd"
   xmlns="http://www.w3.org/2000/svg"
   xmlns:svg="http://www.w3.org/2000/svg">
  <defs
     id="defs5541">
    <clipPath
       clipPathUnits="userSpaceOnUse"
       id="clipPath5557">
      <path
         d="M 0,1200 H 1200 V 0 H 0 Z"
         id="path5555" />
    </clipPath>
  </defs>
  <sodipodi:namedview
     id="namedview5539"
     pagecolor="#ffffff"
     bordercolor="#000000"
     borderopacity="0.25"
     inkscape:showpageshadow="2"
     inkscape:pageopacity="0.0"
     inkscape:pagecheckerboard="0"
     inkscape:deskcolor="#d1d1d1"
     showgrid="false"
     inkscape:zoom="0.523125"
     inkscape:cx="800"
     inkscape:cy="800.95579"
     inkscape:window-width="1920"
     inkscape:window-height="1017"
     inkscape:window-x="-8"
     inkscape:window-y="-8"
     inkscape:window-maximized="1"
     inkscape:current-layer="g5545">
    <inkscape:page
       x="0"
       y="0"
       id="page5543"
       width="1600"
       height="1600" />
  </sodipodi:namedview>
  <g
     id="g5545"
     inkscape:groupmode="layer"
     inkscape:label="Page 1"
     transform="matrix(1.3333333,0,0,-1.3333333,0,1600)">
    <g
       id="g5547"
       transform="translate(989.1738,970.397)">
      <path
         d="m 0,0 v 6.687 6.677 L -32.572,12.516 -40.531,0.934 Z"
         style="fill:#ff6500;fill-opacity:1;fill-rule:nonzero;stroke:none"
         id="path5549" />
    </g>
    <g
       id="g5551">
      <g
         id="g5553"
         clip-path="url(#clipPath5557)">
        <g
           id="g5559"
           transform="translate(928.9531,971.7852)">
          <path
             d="M 0,0 19.69,-0.454 27.648,11.127 11.043,10.695 C -1.56,10.364 -13.113,10.19 -23.545,10.168 l 0.6,-9.684 C -16.449,0.366 -8.869,0.203 0,0"
             style="fill:#ff5a00;fill-opacity:1;fill-rule:nonzero;stroke:none"
             id="path5561" />
        </g>
        <g
           id="g5563"
           transform="translate(592.5181,1098.6431)">
          <path
             d="m 0,0 c -9.726,1.941 -33.601,-1.213 -44.228,-5.852 -6.531,-2.847 -11.883,-7.733 -16.061,-14.63 L 25.705,-8.294 C 20.638,-4.74 13.396,-2.662 0,0"
             style="fill:#e92c00;fill-opacity:1;fill-rule:nonzero;stroke:none"
             id="path5565" />
        </g>
        <g
           id="g5567"
           transform="translate(741.3086,894.0786)">
          <path
             d="m 0,0 c 8.67,13.182 34.953,44.196 46.508,53.87 7.631,6.405 12.871,9.066 17.761,9.066 9.706,0 10.473,-4.64 2.524,-15.598 -3.707,-5.153 -6.774,-10.491 -6.774,-11.869 0,-3.654 -20.017,-22.68 -33.79,-32.287 l 83.587,10.14 c 0.077,0.478 0.155,0.966 0.233,1.474 2.31,15.044 2.183,16.422 -2.047,21.061 -4.078,4.465 -4.223,5.542 -1.457,10.724 3.291,6.144 3.223,6.23 -9.889,14.956 -2.709,1.796 -3.736,4.173 -2.824,6.532 1.086,2.892 4.289,3.707 14.481,3.707 9.433,0 13.878,1.009 16.072,3.66 2.291,2.76 6.974,3.361 40.314,2.755 l -0.599,9.684 c -41.02,-0.087 -64.696,2.18 -66.832,6.544 -1.028,2.136 -2.737,5.609 -3.776,7.745 -1.099,2.268 -4.715,4.022 -8.998,4.899 L -5.023,-0.609 Z"
             style="fill:#ff6800;fill-opacity:1;fill-rule:nonzero;stroke:none"
             id="path5569" />
        </g>
        <g
           id="g5571"
           transform="translate(785.8574,743.312)">
          <path
             d="m 0,0 c 0,-1.097 -2.971,-4.862 -6.629,-8.375 -3.65,-3.495 -6.629,-7.571 -6.629,-9.085 0,-1.494 -2.621,-4.813 -5.814,-7.318 -10.434,-8.21 -33.018,-5.415 -61.891,7.676 -0.346,0.158 -0.728,0.331 -1.129,0.513 l -28.974,-7.366 c 3.197,-1.301 6.892,-2.945 10.209,-4.588 18.711,-9.221 34.986,-12.569 53.154,-10.87 8.793,0.825 18.412,2.892 21.361,4.571 2.951,1.699 7.514,4.047 10.133,5.27 2.621,1.184 7.299,5.435 10.404,9.453 3.108,4.057 9.92,12.636 15.131,19.081 2.903,3.61 5.422,6.786 7.627,9.625 L 2.731,4.973 C 1.096,2.672 0,0.73 0,0"
             style="fill:#ffba00;fill-opacity:1;fill-rule:nonzero;stroke:none"
             id="path5573" />
        </g>
        <g
           id="g5575"
           transform="translate(731.6621,1009.9463)">
          <path
             d="m 0,0 c 0.824,1.359 10.443,2.31 23.137,2.31 16.974,0 22.302,-0.748 24.556,-3.456 1.58,-1.902 5.688,-4.91 9.094,-6.686 7.268,-3.747 8.248,-10.734 1.979,-14.083 -2.34,-1.262 -13.112,-2.29 -23.924,-2.29 -17.547,0 -20.11,0.524 -24.156,4.969 C 3.262,-11.054 -1.514,-2.445 0,0 m 2.252,-86.881 c 2.135,0.814 3.105,3.716 2.775,8.21 -0.525,6.589 -0.097,6.988 7.998,7.657 8.162,0.67 8.463,0.98 7.221,7.269 -1.65,8.172 1.94,9.928 14.752,7.222 6.27,-1.32 9.258,-3.106 9.258,-5.532 0,-4.188 -27.389,-36.79 -40.244,-49.038 l 0.611,-5.384 89.518,107.672 c -4.366,0.894 -9.424,0.874 -13.217,-0.454 -5.959,-2.067 -16.789,2.077 -22.789,8.706 -1.981,2.184 -3.922,7.948 -4.328,12.811 -0.631,8.064 -1.184,8.754 -6.231,7.89 -2.881,-0.486 -28.57,-0.955 -58.338,-1.087 l 3.153,-27.777 c 3.552,-4.73 6.265,-9.782 5.367,-11.239 -0.217,-0.35 -1.653,-0.62 -3.998,-0.818 l 7.566,-66.648 c 0.293,0.23 0.604,0.416 0.926,0.54"
             style="fill:#fd5c00;fill-opacity:1;fill-rule:nonzero;stroke:none"
             id="path5577" />
        </g>
        <g
           id="g5579"
           transform="translate(713.2988,185.1592)">
          <path
             d="m 0,0 c -8.59,2.883 -16.402,8.24 -28.785,19.75 -5.656,5.225 -9.586,9.082 -12.475,12.467 l 27.186,-81.892 c 2.32,-0.222 4.717,-0.353 7.164,-0.386 4.465,-0.057 14.383,3.078 23.244,7.308 C 47.041,-28.03 41.715,-14.093 0,0"
             style="fill:#ccba1c;fill-opacity:1;fill-rule:nonzero;stroke:none"
             id="path5581" />
        </g>
        <g
           id="g5583"
           transform="translate(741.3086,894.0786)">
          <path
             d="m 0,0 -5.023,-0.609 3.191,-2.38 C -1.367,-2.143 -0.748,-1.138 0,0"
             style="fill:#ff8500;fill-opacity:1;fill-rule:nonzero;stroke:none"
             id="path5585" />
        </g>
        <g
           id="g5587"
           transform="translate(765.9609,896.1812)">
          <path
             d="m 0,0 c -7.795,-5.219 -15.381,-8.558 -20.672,-9.424 l 52.945,-39.472 c 0.432,0.56 0.873,1.125 1.327,1.689 8.095,10.034 14.578,10.734 18.713,1.979 1.816,-3.837 2.056,-10.833 1.132,-19.453 l 9.282,-6.918 c 1.992,13.095 3.324,26.998 3.093,35.446 -0.416,16.188 3.321,25.903 11.541,30 4.514,2.26 5.815,4.959 7.803,17.373 L 1.576,1.079 C 1.043,0.706 0.514,0.343 0,0"
             style="fill:#ff8500;fill-opacity:1;fill-rule:nonzero;stroke:none"
             id="path5589" />
        </g>
        <g
           id="g5591"
           transform="translate(791.6211,752.1919)">
          <path
             d="m 0,0 c -1.111,-1.32 -2.15,-2.665 -3.033,-3.907 l 14.222,3.614 c 11.045,14.226 13.987,19.817 15.25,27.196 0.834,4.833 2.871,12.656 4.541,17.334 2.135,6.057 4.358,16.802 6.086,28.154 l -9.281,6.918 C 25.08,54 12.344,14.668 0,0"
             style="fill:#ff9400;fill-opacity:1;fill-rule:nonzero;stroke:none"
             id="path5593" />
        </g>
        <g
           id="g5595"
           transform="translate(702.5176,808.3472)">
          <path
             d="m 0,0 c 28.018,-0.456 30.27,-0.175 35.115,4.309 2.824,2.64 7.637,4.737 10.684,4.678 11.705,-0.253 26.533,4.542 35.172,11.395 4.961,3.92 9.008,8.093 9.008,9.278 0,1.046 2.472,5.019 5.738,9.278 L 42.771,78.41 c -3.337,-0.548 -5.765,-0.112 -6.744,1.465 -0.234,0.376 0.116,1.379 0.932,2.867 L 33.768,85.122 -3.613,0.064 C -2.451,0.042 -1.256,0.019 0,0"
             style="fill:#ff9400;fill-opacity:1;fill-rule:nonzero;stroke:none"
             id="path5597" />
        </g>
        <g
           id="g5599"
           transform="translate(683.0957,736.1968)">
          <path
             d="m 0,0 c -3.939,1.811 -8.961,3.646 -13.699,5.077 l -7.282,-16.57 c 2.09,-1.403 4.282,-2.516 5.958,-2.938 1.417,-0.361 3.871,-1.25 6.718,-2.409 L 20.67,-9.474 C 15.66,-7.197 6.769,-3.108 0,0"
             style="fill:#ff9400;fill-opacity:1;fill-rule:nonzero;stroke:none"
             id="path5601" />
        </g>
        <g
           id="g5603"
           transform="translate(669.7129,949.3462)">
          <path
             d="M 0,0 C 5.115,3.862 11.443,4.231 13.539,0.796 14.725,-1.116 10.758,-5.696 5.021,-9.896 l 47.561,-35.529 c 1.848,4.465 4.572,8.894 6.203,8.894 1.164,0 2.135,2.028 2.135,4.494 0,2.036 0.988,4.143 2.355,5.216 l -7.566,66.648 c -16.613,-1.401 -79.109,0.802 -81.938,3.429 -1.248,1.165 -0.212,3.912 2.68,6.978 l 4.746,5.066 -5.326,6.562 c -4.594,5.667 -5.17,8.133 -4.074,17.896 1.49,13.239 -4.961,35.415 -15.063,51.846 -2.547,4.143 -4.925,7.083 -8.224,9.398 l -85.994,-12.188 c -4.041,-6.67 -6.978,-15.231 -8.808,-25.672 L -4.799,-2.559 C -3.129,-1.948 -1.348,-1.022 0,0"
             style="fill:#fa4f00;fill-opacity:1;fill-rule:nonzero;stroke:none"
             id="path5605" />
        </g>
        <g
           id="g5607"
           transform="translate(736.2852,893.4692)">
          <path
             d="M 0,0 -0.611,5.384 C -1.727,4.322 -2.73,3.413 -3.6,2.69 Z"
             style="fill:#fa4f00;fill-opacity:1;fill-rule:nonzero;stroke:none"
             id="path5609" />
        </g>
        <g
           id="g5611"
           transform="translate(715.6973,1028.9878)">
          <path
             d="m 0,0 -58,-0.155 v -7.754 -7.755 l 26.992,-0.699 c 14.819,-0.388 28.61,-1.572 30.58,-2.639 2.512,-1.343 5.92,-4.945 8.783,-8.756 L 5.203,0.02 C 3.48,0.012 1.744,0.005 0,0"
             style="fill:#fa4f00;fill-opacity:1;fill-rule:nonzero;stroke:none"
             id="path5613" />
        </g>
        <g
           id="g5615"
           transform="translate(722.1367,893.5034)">
          <path
             d="m 0,0 c -0.572,0.353 -1.018,0.932 -1.519,1.756 -0.782,1.26 0.15,4.972 1.677,8.662 l -47.56,35.529 c -2.946,-2.154 -6.354,-4.209 -9.772,-5.75 -8.459,-3.804 -10.953,-3.978 -12.84,-0.892 -2.068,3.319 4.989,13.141 9.496,13.238 0.891,0.013 2.063,0.291 3.295,0.741 l -141.492,105.701 c -0.78,-4.448 -1.363,-9.229 -1.74,-14.358 -1.208,-16.421 -4.22,-26.379 -9.344,-30.844 -3.156,-2.753 -9.086,-5.317 -15.472,-7.088 l 1.348,-106.161 z"
             style="fill:#ff4e00;fill-opacity:1;fill-rule:nonzero;stroke:none"
             id="path5617" />
        </g>
        <g
           id="g5619"
           transform="translate(729.8184,894.2583)">
          <path
             d="M 0,0 C -1.182,-0.317 -2.18,-0.574 -3.039,-0.767 L 6.467,-0.789 2.867,1.9 C 1.586,0.833 0.6,0.162 0,0"
             style="fill:#ff4e00;fill-opacity:1;fill-rule:nonzero;stroke:none"
             id="path5621" />
        </g>
        <g
           id="g5623"
           transform="translate(653.8906,432.9629)">
          <path
             d="m 0,0 c -0.076,8.999 -0.918,12.608 -2.947,15.026 -5.572,6.571 -15.34,39.005 -15.34,50.875 0,5.998 -1.154,12.074 -2.586,13.481 -1.977,2.01 -1.611,4.416 1.582,10.346 4.445,8.221 3.746,12.626 -5.053,31.678 -3.07,6.629 -3.008,7.61 0.549,11.559 0.754,0.828 1.352,1.508 1.787,2.121 l -75.714,0.416 z"
             style="fill:#ffb900;fill-opacity:1;fill-rule:nonzero;stroke:none"
             id="path5625" />
        </g>
        <g
           id="g5627"
           transform="translate(631.8828,568.0488)">
          <path
             d="m 0,0 c 1.738,2.463 0.801,3.865 -3.703,9.42 -3.227,3.949 -10.561,13.17 -16.34,20.476 L -30.51,43.134 -31.454,64.209 -75.714,0.416 Z"
             style="fill:#ffab00;fill-opacity:1;fill-rule:nonzero;stroke:none"
             id="path5629" />
        </g>
        <g
           id="g5631"
           transform="translate(658.8184,743.7681)">
          <path
             d="m 0,0 c -14.789,1.98 -24.68,6.726 -29.154,13.936 -2.039,3.282 -6.149,8.638 -9.157,11.957 l -5.451,5.999 4.17,10.558 c 2.315,5.843 4.688,18.043 5.293,27.137 1.34,19.547 5.145,22.361 15.674,11.569 4.291,-4.368 9.406,-6.93 15.428,-7.745 4.994,-0.66 10.834,-2.815 12.996,-4.784 2.998,-2.714 9.207,-3.57 30.287,-3.984 l 37.381,85.058 -9.506,0.023 c -2.424,-0.542 -3.705,-0.568 -4.643,0.011 l -223.923,0.534 115.617,-129.606 c 1.861,3.314 4.101,2.805 6.041,-2.252 2.435,-6.338 25.379,-28.33 29.578,-28.33 1.674,0 5.328,-2.407 8.098,-5.357 1.23,-1.312 2.863,-2.646 4.568,-3.789 l 7.281,16.571 C 6.576,-1.286 2.773,-0.364 0,0"
             style="fill:#ff7700;fill-opacity:1;fill-rule:nonzero;stroke:none"
             id="path5633" />
        </g>
        <g
           id="g5635"
           transform="translate(658.7324,393.6006)">
          <path
             d="m 0,0 c -5.508,5.183 -5.658,6.114 -5.023,27.816 0.142,4.624 0.207,8.411 0.181,11.546 l -97.722,135.502 -33.982,-84.836 c 0.972,-2.308 3.684,-8.23 6.339,-13.861 2.873,-6.075 7.377,-17.372 10.005,-25.098 2.625,-7.725 6.149,-16.673 7.823,-19.876 1.679,-3.222 3.052,-7.61 3.062,-9.764 0.015,-3.349 5.964,-19.469 13.219,-35.852 1.077,-2.426 2.465,-7.394 3.077,-11.044 0.244,-1.456 0.495,-2.891 0.752,-4.303 L 11.725,-35.096 C 10.647,-11.773 8.156,-7.655 0,0"
             style="fill:#ff9900;fill-opacity:1;fill-rule:nonzero;stroke:none"
             id="path5637" />
        </g>
        <g
           id="g5639"
           transform="translate(664.2246,231.1943)">
          <path
             d="m 0,0 -47.451,-69.335 c 2.373,-1.02 4.724,-2.084 6.111,-2.779 2.102,-1.096 8.123,-1.981 13.418,-1.981 12.66,0 29.916,-5.871 37.283,-12.713 4.969,-4.615 14.424,-7.83 25.639,-8.902 L 7.814,-13.818 C 3.783,-9.097 1.787,-5.293 0,0"
             style="fill:#c68600;fill-opacity:1;fill-rule:nonzero;stroke:none"
             id="path5641" />
        </g>
        <g
           id="g5643"
           transform="translate(665.9766,271.5459)">
          <path
             d="M 0,0 6.057,5.97 5.26,55.301 C 5.053,68.722 4.848,78.966 4.48,86.959 l -103.993,5.326 c 2.48,-13.6 5.524,-24.916 8.167,-30.209 1.712,-3.436 4.333,-15.451 5.818,-26.749 0.59,-4.484 1.366,-9.19 2.198,-13.504 L -3.557,-34.376 C -7.955,-18.147 -6.764,-6.675 0,0"
             style="fill:#eaa400;fill-opacity:1;fill-rule:nonzero;stroke:none"
             id="path5645" />
        </g>
        <g
           id="g5647"
           transform="translate(556.1685,568.4648)">
          <path
             d="m 0,0 44.261,63.794 -0.245,5.46 c -0.791,17.342 -2.252,28.174 -4.325,31.338 -2.736,4.232 -2.643,6.366 0.641,16.771 2.072,6.58 3.746,14.053 3.746,16.673 0,1.137 0.379,3.566 1.007,6.679 L -62.501,129.546 Z"
             style="fill:#ff8800;fill-opacity:1;fill-rule:nonzero;stroke:none"
             id="path5649" />
        </g>
        <g
           id="g5651"
           transform="translate(493.6675,698.0112)">
          <path
             d="m 0,0 107.586,11.169 c 0.821,4.057 2.069,9.276 3.463,14.323 2.436,8.91 5.172,22.031 6.055,29.116 0.703,5.55 1.795,9.562 3.059,11.812 L 4.546,196.026 Z"
             style="fill:#ff7400;fill-opacity:1;fill-rule:nonzero;stroke:none"
             id="path5653" />
        </g>
        <g
           id="g5655"
           transform="translate(663.7246,232.7256)">
          <path
             d="m 0,0 c -0.094,0.296 -0.18,0.586 -0.272,0.88 l -51.74,-13.42 c -0.392,-7.492 -1.627,-15.74 -3.769,-24.283 -4.746,-18.907 -3.106,-29.272 5.142,-32.504 1.139,-0.457 2.416,-0.99 3.688,-1.539 L 0.5,-1.531 C 0.334,-1.034 0.166,-0.526 0,0"
             style="fill:#cc7600;fill-opacity:1;fill-rule:nonzero;stroke:none"
             id="path5657" />
        </g>
        <g
           id="g5659"
           transform="translate(662.4199,237.1699)">
          <path
             d="m 0,0 -79.773,56.199 c 1.26,-6.533 2.648,-12.162 3.711,-14.728 1.768,-4.261 4.577,-10.9 6.218,-14.762 1.674,-3.833 5.783,-8.308 9.16,-9.918 7.344,-3.537 10.871,-16.673 9.977,-33.775 l 51.74,13.42 C 0.662,-2.352 0.316,-1.163 0,0"
             style="fill:#df8100;fill-opacity:1;fill-rule:nonzero;stroke:none"
             id="path5661" />
        </g>
        <g
           id="g5663"
           transform="translate(380.0298,716.7622)">
          <path
             d="m 0,0 113.638,-18.751 4.546,196.026 z"
             style="fill:#ff6200;fill-opacity:1;fill-rule:nonzero;stroke:none"
             id="path5665" />
        </g>
        <g
           id="g5667"
           transform="translate(496.8657,1000.1987)">
          <path
             d="m 0,0 c -7.075,-1.961 -14.711,-2.948 -19.764,-2.132 -12.088,1.922 -21.556,-2.93 -38.424,-19.722 -14.943,-14.873 -19.06,-20.755 -20.279,-39.649 l 79.815,-44.658 z"
             style="fill:#fa3600;fill-opacity:1;fill-rule:nonzero;stroke:none"
             id="path5669" />
        </g>
        <g
           id="g5671"
           transform="translate(493.6675,698.0112)">
          <path
             d="m 0,0 -121.659,-96.487 c -0.486,-0.979 -0.943,-1.792 -1.35,-2.385 -1.31,-1.907 -2.61,-4.047 -3.857,-6.311 l 189.367,-24.363 z"
             style="fill:#ff7200;fill-opacity:1;fill-rule:nonzero;stroke:none"
             id="path5673" />
        </g>
        <g
           id="g5675"
           transform="translate(366.8013,592.8281)">
          <path
             d="m 0,0 c -0.807,-1.463 -1.59,-2.977 -2.34,-4.514 l 85.884,-169.203 c 1.933,5.824 3.532,10.114 4.108,10.884 0.913,1.223 2.382,5.697 3.267,9.958 0.888,4.231 3.343,11.714 5.453,16.557 2.116,4.863 4.484,10.346 5.266,12.171 0.776,1.825 4.916,8.153 9.19,14.092 4.276,5.92 8.392,13.383 9.138,16.547 1.446,6.183 11.195,17.955 14.84,17.955 3.945,0 10.253,-7.212 10.42,-11.927 0.086,-2.563 2.065,-7.61 4.395,-11.259 2.33,-3.649 4.828,-8.133 5.556,-9.958 0.055,-0.139 0.128,-0.313 0.208,-0.502 l 33.982,84.836 z"
             style="fill:#ff7400;fill-opacity:1;fill-rule:nonzero;stroke:none"
             id="path5677" />
        </g>
        <g
           id="g5679"
           transform="translate(356.3496,138.6719)">
          <path
             d="M 0,0 C 0.056,7.492 -0.729,14.385 -2.527,17.965 L -29.73,11.604 Z"
             style="fill:#c84600;fill-opacity:1;fill-rule:nonzero;stroke:none"
             id="path5681" />
        </g>
        <g
           id="g5683"
           transform="translate(321.0264,106.2051)">
          <path
             d="m 0,0 c 9.939,-1.75 25.028,-0.496 28.857,2.66 3.954,3.24 6.372,17.348 6.466,29.807 L 5.593,44.07 Z"
             style="fill:#ba2800;fill-opacity:1;fill-rule:nonzero;stroke:none"
             id="path5685" />
        </g>
        <g
           id="g5687"
           transform="translate(361.8228,582.4805)">
          <path
             d="m 0,0 -0.543,-245.838 58.007,16.082 c 1.243,2.461 2.98,5.108 4.576,6.858 4.294,4.688 11.097,15.636 14.917,24.011 1.111,2.437 4.717,13.364 8.022,24.313 1.206,3.992 2.43,7.852 3.543,11.205 L 2.639,5.834 C 1.697,3.904 0.811,1.939 0,0"
             style="fill:#fc6200;fill-opacity:1;fill-rule:nonzero;stroke:none"
             id="path5689" />
        </g>
        <g
           id="g5691"
           transform="translate(394.4878,296.3955)">
          <path
             d="m 0,0 c 0.035,0.065 0.069,0.135 0.103,0.2 2.344,4.377 4.915,11.811 5.711,16.547 2.535,15.006 5.673,22.77 10.88,26.846 2.791,2.193 5.814,6.444 6.726,9.433 0.297,0.978 0.781,2.119 1.379,3.303 L -33.208,40.247 Z"
             style="fill:#e56700;fill-opacity:1;fill-rule:nonzero;stroke:none"
             id="path5693" />
        </g>
        <g
           id="g5695"
           transform="translate(380.0298,716.7622)">
          <path
             d="m 0,0 -9.961,-67.545 c 0.297,-0.181 0.602,-0.345 0.915,-0.484 2.732,-1.184 6.366,-5.105 8.074,-8.696 2.732,-5.764 2.64,-8.308 -0.713,-20.906 -1.703,-6.37 -4.286,-13.48 -6.336,-17.607 l 121.659,96.487 z"
             style="fill:#ff6800;fill-opacity:1;fill-rule:nonzero;stroke:none"
             id="path5697" />
        </g>
        <g
           id="g5699"
           transform="translate(498.2134,894.0376)">
          <path
             d="m 0,0 -79.814,44.658 c -0.323,-5 -0.443,-10.906 -0.505,-18.135 -0.136,-15.801 -1.548,-39.676 -3.125,-53.041 -1.582,-13.364 -2.674,-33.472 -2.423,-44.692 0.249,-11.22 -0.514,-23.642 -1.693,-27.621 -1.178,-3.96 -3.304,-12.89 -4.726,-19.761 -1.902,-9.249 -4.848,-15.121 -11.23,-22.36 -5.303,-6.037 -9.5,-13.578 -10.85,-19.508 -0.588,-2.583 -1.953,-8.331 -3.695,-15.571 l -0.123,-1.244 z"
             style="fill:#ff4d00;fill-opacity:1;fill-rule:nonzero;stroke:none"
             id="path5701" />
        </g>
        <g
           id="g5703"
           transform="translate(326.6196,150.2754)">
          <path
             d="m 0,0 27.203,6.361 c -0.262,0.52 -0.543,0.975 -0.848,1.348 -1.092,1.34 -3.106,6.609 -4.469,11.715 -3.057,11.442 0.078,56.757 4.561,65.976 2.819,5.784 10.055,11.413 20.906,16.218 2.547,1.125 6.323,5.871 8.39,10.53 2.072,4.659 4.708,10.19 5.866,12.326 1.157,2.096 2.102,6.075 2.102,8.851 0,2.735 1.861,8.441 4.157,12.795 L 34.66,186.367 Z"
             style="fill:#d45200;fill-opacity:1;fill-rule:nonzero;stroke:none"
             id="path5705" />
        </g>
        <g
           id="g5707"
           transform="translate(361.2798,336.6426)">
          <path
             d="m 0,0 -56.197,-32.253 c -0.895,-1.422 -1.906,-2.957 -2.973,-4.504 -3.558,-5.184 -7.376,-12.81 -8.488,-16.983 -1.844,-6.91 -1.281,-8.493 6.313,-17.645 4.586,-5.552 8.973,-12.598 9.744,-15.685 1.437,-5.716 -4.298,-31.95 -7.958,-36.394 -1.121,-1.34 -2.94,-9.667 -4.047,-18.499 -1.111,-8.793 -3.086,-17.102 -4.397,-18.4 -0.218,-0.221 -0.429,-0.518 -0.63,-0.868 l 33.973,-25.136 z"
             style="fill:#d24000;fill-opacity:1;fill-rule:nonzero;stroke:none"
             id="path5709" />
        </g>
        <g
           id="g5711"
           transform="translate(330.1045,382.0381)">
          <path
             d="m 0,0 c -0.744,-3.357 -1.352,-6.784 -1.723,-9.887 -1.038,-8.734 -3.931,-20.36 -6.429,-25.864 -0.803,-1.761 -1.56,-3.549 -2.222,-5.222 l 41.549,-4.422 z"
             style="fill:#ec4600;fill-opacity:1;fill-rule:nonzero;stroke:none"
             id="path5713" />
        </g>
        <g
           id="g5715"
           transform="translate(361.8228,582.4805)">
          <path
             d="m 0,0 c -2.773,-6.649 -4.636,-13.014 -4.636,-16.727 0,-3.775 -1.868,-14.482 -4.154,-23.797 -2.285,-9.317 -5.41,-32.63 -6.948,-51.827 l -2.796,-34.871 5.289,-5.63 c 3.941,-4.163 5.289,-8.122 5.289,-15.422 0,-8.19 -1.168,-10.869 -7.181,-16.498 -3.949,-3.688 -7.181,-7.707 -7.181,-8.919 0,-1.213 -2.072,-6.396 -4.617,-11.5 -1.635,-3.281 -3.433,-9.152 -4.783,-15.251 l 31.175,-45.396 z"
             style="fill:#fc5000;fill-opacity:1;fill-rule:nonzero;stroke:none"
             id="path5717" />
        </g>
        <g
           id="g5719"
           transform="translate(379.8755,716.855)">
          <path
             d="m 0,0 c -0.012,-0.047 -0.022,-0.094 -0.034,-0.141 l 0.188,0.048 z"
             style="fill:#f34c00;fill-opacity:1;fill-rule:nonzero;stroke:none"
             id="path5721" />
        </g>
        <g
           id="g5723"
           transform="translate(380.1528,718.0063)">
          <path
             d="m 0,0 c -0.092,-0.38 -0.185,-0.763 -0.277,-1.151 l 0.154,-0.093 z"
             style="fill:#f74100;fill-opacity:1;fill-rule:nonzero;stroke:none"
             id="path5725" />
        </g>
        <g
           id="g5727"
           transform="translate(293.6304,117.9785)">
          <path
             d="m 0,0 c 5.744,-4.602 14.366,-8.543 24.885,-11.238 0.788,-0.203 1.631,-0.379 2.511,-0.535 l 5.593,44.07 z"
             style="fill:#b41400;fill-opacity:1;fill-rule:nonzero;stroke:none"
             id="path5729" />
        </g>
        <g
           id="g5731"
           transform="translate(379.8413,716.7144)">
          <path
             d="m 0,0 c -1.792,-7.44 -3.938,-16.286 -6.039,-24.859 -4.309,-17.617 -7.826,-34.057 -7.812,-36.484 0.017,-2.184 1.766,-4.748 4.079,-6.154 L 0.189,0.048 Z"
             style="fill:#ff5e00;fill-opacity:1;fill-rule:nonzero;stroke:none"
             id="path5733" />
        </g>
        <g
           id="g5735"
           transform="translate(319.73,341.0654)">
          <path
             d="m 0,0 c -1.4,-3.536 -2.368,-6.544 -2.398,-7.618 -0.039,-1.582 -1.995,-6.852 -4.343,-11.725 -2.349,-4.862 -4.304,-9.636 -4.344,-10.636 -0.03,-0.706 -1.48,-3.389 -3.562,-6.697 L 41.55,-4.423 Z"
             style="fill:#d94500;fill-opacity:1;fill-rule:nonzero;stroke:none"
             id="path5737" />
        </g>
        <g
           id="g5739"
           transform="translate(292.6465,175.4121)">
          <path
             d="m 0,0 c -1.006,-1.742 -1.752,-4.916 -1.752,-7.811 0,-3.435 -1.649,-12.849 -3.659,-20.847 -3.445,-13.723 -3.436,-14.965 0.224,-21.758 1.318,-2.449 3.415,-4.809 6.171,-7.018 l 32.989,32.297 z"
             style="fill:#be2800;fill-opacity:1;fill-rule:nonzero;stroke:none"
             id="path5741" />
        </g>
      </g>
    </g>
  </g>
</svg>
