<!DOCTYPE svg PUBLIC "-//W3C//DTD SVG 1.1//EN" "http://www.w3.org/Graphics/SVG/1.1/DTD/svg11.dtd">
<!-- Uploaded to: SVG Repo, www.svgrepo.com, Transformed by: SVG Repo Mixer Tools -->
<svg fill="#ffffff" width="64px" height="64px" viewBox="0 0 64 64" xmlns="http://www.w3.org/2000/svg">
<g id="SVGRepo_bgCarrier" stroke-width="0"/>
<g id="SVGRepo_tracerCarrier" stroke-linecap="round" stroke-linejoin="round"/>
<g id="SVGRepo_iconCarrier"> <g id="a"/> <g id="b"/> <g id="c"/> <g id="d"/> <g id="e"/> <g id="f"/> <g id="g"/> <g id="h"/> <g id="i"/> <g id="j"/> <g id="k"/> <g id="l"/> <g id="m"/> <g id="n"/> <g id="o"/> <g id="p"/> <g id="q"/> <g id="r"/> <g id="s"/> <g id="t"/> <g id="u"/> <g id="v"/> <g id="w"/> <g id="x"/> <g id="y"/> <g id="a`"/> <g id="aa"/> <g id="ab"/> <g id="ac"/> <g id="ad"/> <g id="ae"/> <g id="af"/> <g id="ag"/> <g id="ah"/> <g id="ai"/> <g id="aj"/> <g id="ak"/> <g id="al"/> <g id="am"/> <g id="an"/> <g id="ao"> <path d="M58.08,15.75c.6-.29,.95-.9,.9-1.57-.05-.66-.5-1.21-1.14-1.4l-15.09-4.39c-.51-.15-1.03-.25-1.55-.3l-9.93-3.82c-1.96-.75-4.13,.1-5.06,1.99l-1.84,3.79-.67,.09c-1.35,.17-2.43,1.19-2.7,2.52l-3.44,17.55-5.96-3.28c-.6-.33-1.31-.36-1.94-.09-.63,.28-1.08,.82-1.24,1.49l-3.28,13.63c-.3,1.25,0,2.59,.82,3.58l10.56,12.89c.82,1,2.03,1.57,3.31,1.57h25.74c1.33,0,2.54-.73,3.16-1.91l6.56-12.44c.6-1.14,.66-2.47,.18-3.66l-5.56-13.7,5.94-11.46,2.23-1.08Zm-1.81-1.34c-2.08,1-.17,.16-10.2,4.43l-3.4-8.38,13.6,3.96ZM28,7.14c.46-.95,1.55-1.38,2.54-1l6.29,2.42-10.11,1.21,1.28-2.63Zm-5.05,5.91c.1-.49,.49-.86,.99-.93l1.2-.15h0l15.25-1.82,3.84,9.47-24.62,10.47,3.34-17.04Zm-3.69,44.61v-24.53l27.72,9.07-4.43,9.46c-.18,.38-.44,.66-.67,.71l-22.62,5.29ZM10.35,28.8c.02-.07,.07-.11,.11-.13,.02,0,.05-.02,.08-.02,.03,0,.06,0,.09,.02l5.96,3.29-9.08,8.67,2.85-11.83Zm-2.86,15.48c-.14-.17-.21-.39-.29-.59l10.06-9.6v22.12l-9.77-11.93Zm39.45,12.88c-.27,.52-.81,.84-1.39,.84H26.57l15.77-3.69c.84-.2,1.58-.86,2.03-1.81l4.53-9.68,4.71,1.54c-.04,.12-.04,.24-.1,.35l-6.56,12.44Zm6.43-14.97L21.11,31.63l23.88-10.16,2.9,7.14h0l5.5,13.57Zm-4.47-16.33l-2.1-5.17,6.12-2.6-4.02,7.77Z"/> </g> <g id="ap"/> <g id="aq"/> <g id="ar"/> <g id="as"/> <g id="at"/> <g id="au"/> <g id="av"/> <g id="aw"/> <g id="ax"/> </g>
</svg>