<!DOCTYPE svg PUBLIC "-//W3C//DTD SVG 1.1//EN" "http://www.w3.org/Graphics/SVG/1.1/DTD/svg11.dtd">
<!-- Uploaded to: SVG Repo, www.svgrepo.com, Transformed by: SVG Repo Mixer Tools -->
<svg fill="#ffffff" width="64px" height="64px" viewBox="0 0 64 64" xmlns="http://www.w3.org/2000/svg">
<g id="SVGRepo_bgCarrier" stroke-width="0"/>
<g id="SVGRepo_tracerCarrier" stroke-linecap="round" stroke-linejoin="round"/>
<g id="SVGRepo_iconCarrier"> <g id="a"/> <g id="b"/> <g id="c"/> <g id="d"/> <g id="e"/> <g id="f"/> <g id="g"/> <g id="h"/> <g id="i"/> <g id="j"/> <g id="k"/> <g id="l"/> <g id="m"/> <g id="n"/> <g id="o"/> <g id="p"/> <g id="q"/> <g id="r"/> <g id="s"/> <g id="t"/> <g id="u"/> <g id="v"/> <g id="w"/> <g id="x"/> <g id="y"/> <g id="a`"/> <g id="aa"/> <g id="ab"/> <g id="ac"/> <g id="ad"/> <g id="ae"/> <g id="af"/> <g id="ag"/> <g id="ah"/> <g id="ai"/> <g id="aj"/> <g id="ak"/> <g id="al"/> <g id="am"/> <g id="an"/> <g id="ao"/> <g id="ap"/> <g id="aq"/> <g id="ar"/> <g id="as"/> <g id="at"/> <g id="au"/> <g id="av"> <path d="M10.42,36.85l8.32-1.48c2.45,9.74,.83,4.68,7.48,23.02,.35,.96,1.27,1.6,2.29,1.6h12.13c.41,0,.78-.25,.93-.63s.06-.81-.23-1.09l-7.2-6.92,2.33-7.59h3.17c.97,0,1.86-.48,2.39-1.29l.75-1.14,5.91,.17c.42,.01,.78-.13,1.07-.41s.46-.64,.47-1.04c0-.33-.09-.66-.29-.92l-3.21-4.37,.43-14.53,6.06-.02c1.1,0,2-.9,2-2.01v-5.17c0-1.02-.61-1.92-1.54-2.31l-15.64-6.52c-.89-.37-1.9-.27-2.7,.26l-4.64,3.08c-.34,.23-.57,.57-.65,.97-.08,.4,0,.81,.23,1.15,.17,.26,.41,.45,.69,.57l5.53,2.29-8.13,15.36-9.75-2.9c-.98-.29-2.02,.04-2.65,.85l-6.86,8.77c-.23,.29-.33,.65-.28,1.02,.05,.37,.23,.69,.52,.92,.31,.24,.71,.34,1.1,.27Zm8.33-9.71l8.65,2.57-5.44,10.28-3.22-12.85Zm19.41,30.85h-8.65l3.62-4.84,5.04,4.84Zm-6.06-6.81l-4.28,5.72-4.77-13.15h11.32l-2.28,7.42Zm15.61-11.71l-3.63-.1,1.68-2.55,1.95,2.65Zm-2.91-7.34l-8.75-11.91h9.1l-.35,11.91Zm-1.19-23.44l-4.94,1.95-.68-4.29,5.62,2.34Zm-11.09,.04l3.46-2.29,.63,3.99-4.09-1.69Zm6.07,4.09l7.67-3.03,6.65,2.77c.19,.08,.31,.26,.31,.47v5.17l-7.03,.02h-10.45l2.86-5.4Zm-4.38,8.28l10.29,14-4.13,6.27c-.16,.24-.43,.39-.72,.39H23.28l6.45-12.2h0l4.47-8.45Zm-17.33,6.8l1.38,5.51-6.61,1.17,5.23-6.69Z"/> </g> <g id="aw"/> <g id="ax"/> </g>
</svg>