<!DOCTYPE svg PUBLIC "-//W3C//DTD SVG 1.1//EN" "http://www.w3.org/Graphics/SVG/1.1/DTD/svg11.dtd">
<!-- Uploaded to: SVG Repo, www.svgrepo.com, Transformed by: SVG Repo Mixer Tools -->
<svg fill="#ffffff" width="64px" height="64px" viewBox="0 0 64 64" xmlns="http://www.w3.org/2000/svg">
<g id="SVGRepo_bgCarrier" stroke-width="0"/>
<g id="SVGRepo_tracerCarrier" stroke-linecap="round" stroke-linejoin="round"/>
<g id="SVGRepo_iconCarrier"> <g id="a"/> <g id="b"/> <g id="c"/> <g id="d"/> <g id="e"/> <g id="f"/> <g id="g"/> <g id="h"/> <g id="i"/> <g id="j"/> <g id="k"/> <g id="l"/> <g id="m"/> <g id="n"/> <g id="o"/> <g id="p"/> <g id="q"/> <g id="r"/> <g id="s"/> <g id="t"/> <g id="u"/> <g id="v"/> <g id="w"/> <g id="x"/> <g id="y"/> <g id="a`"/> <g id="aa"/> <g id="ab"/> <g id="ac"/> <g id="ad"/> <g id="ae"/> <g id="af"/> <g id="ag"/> <g id="ah"/> <g id="ai"/> <g id="aj"/> <g id="ak"/> <g id="al"/> <g id="am"/> <g id="an"/> <g id="ao"/> <g id="ap"/> <g id="aq"> <path d="M30.58,26.55l-3.83,5.51c-.51,.73-.74,1.62-.66,2.5l2.19,24.13c.04,.38,.22,.73,.51,.97,.26,.22,.58,.33,.92,.33,.04,0,.09,0,.13,0,.36-.03,.7-.2,.94-.47l10.55-11.84c.7-.79,.78-1.95,.2-2.82l-3.72-5.56,15.21-16.18c.68-.73,.91-1.76,.59-2.71l-1.52-4.53,4.14-1.25c.37-.11,.67-.36,.85-.69,.18-.34,.22-.73,.11-1.09-.11-.36-.35-.65-.67-.83l-6.5-3.63c-.83-.46-1.84-.51-2.71-.12l-8.57,3.88-12.99-7.64c-.39-.23-.81-.38-1.25-.45-.44-.07-.89-.06-1.33,.03L7.92,7.3c-.78,.16-1.28,.93-1.12,1.71,.07,.36,.28,.67,.57,.88L30.58,26.55Zm1.09,1.93l2.99,8.41-6.24-3.74,3.25-4.68Zm8.19,17.48c.08,.12,.07,.27-.03,.38l-9.69,10.88-1.98-21.89,7.66,4.59,4.04,6.04Zm11.58-31.98l-1.04-3.09,3.95,2.21-2.91,.88Zm-3.41-3.86l1.82,5.41h0l1.32,3.93-10.34-6.09,7.2-3.26Zm3.36,11.79l-14.46,15.39L26.21,7.1l25.18,14.81ZM23.71,6.03l6.25,17.61L9.55,9c12.88-2.72,13.7-2.91,14.15-2.97Z"/> </g> <g id="ar"/> <g id="as"/> <g id="at"/> <g id="au"/> <g id="av"/> <g id="aw"/> <g id="ax"/> </g>
</svg>