<!DOCTYPE svg PUBLIC "-//W3C//DTD SVG 1.1//EN" "http://www.w3.org/Graphics/SVG/1.1/DTD/svg11.dtd">
<!-- Uploaded to: SVG Repo, www.svgrepo.com, Transformed by: SVG Repo Mixer Tools -->
<svg fill="#ffffff" width="64px" height="64px" viewBox="0 0 64 64" xmlns="http://www.w3.org/2000/svg">
<g id="SVGRepo_bgCarrier" stroke-width="0"/>
<g id="SVGRepo_tracerCarrier" stroke-linecap="round" stroke-linejoin="round"/>
<g id="SVGRepo_iconCarrier"> <g id="a"/> <g id="b"/> <g id="c"/> <g id="d"/> <g id="e"/> <g id="f"/> <g id="g"/> <g id="h"/> <g id="i"/> <g id="j"/> <g id="k"/> <g id="l"/> <g id="m"/> <g id="n"/> <g id="o"/> <g id="p"/> <g id="q"/> <g id="r"/> <g id="s"/> <g id="t"/> <g id="u"/> <g id="v"/> <g id="w"/> <g id="x"/> <g id="y"/> <g id="a`"/> <g id="aa"/> <g id="ab"/> <g id="ac"/> <g id="ad"/> <g id="ae"/> <g id="af"/> <g id="ag"/> <g id="ah"/> <g id="ai"/> <g id="aj"/> <g id="ak"/> <g id="al"/> <g id="am"/> <g id="an"/> <g id="ao"/> <g id="ap"/> <g id="aq"/> <g id="ar"/> <g id="as"/> <g id="at"/> <g id="au"/> <g id="av"/> <g id="aw"/> <g id="ax"> <path d="M56.8,18.77c-.5-.75-1.19-1.33-2.02-1.69l-6.37-2.74c-.44-.19-.92-.28-1.41-.26-.48,.02-.96,.14-1.39,.37l-5.84,3.04c-.87,.46-1.49,1.27-1.69,2.23l-2.52,12.2-11.15-8.84c-.89-.71-2.15-.61-2.93,.22l-1.46,1.56-3.73-2.06c-.67-.37-1.71-.57-2.69-.38l-3.87,.73c-.94,.18-1.76,.7-2.31,1.48l-3.18,4.47c-.34,.48-.34,1.11,0,1.59,.34,.47,.94,.68,1.5,.52l5.85-1.7,1.3,2.96-3.21,3.42c-.4,.43-.49,1.05-.22,1.58,.27,.52,.82,.81,1.41,.73l10.88-1.49,.76,5.57c.14,1,.8,1.87,1.72,2.27l11.89,5.16c.34,.15,.71,.22,1.07,.22,.64,0,1.28-.23,1.78-.66l7.28-6.31c.72-.63,1.16-1.53,1.2-2.48l.7-15.14,9.59,1.57c.56,.09,1.12-.07,1.55-.43,.43-.36,.67-.9,.67-1.46,0-.9-.26-1.77-.76-2.52l-2.44-3.71Zm-10.69-2.33l.1,5.88-5.14-3.26,5.04-2.62Zm-27.49,9.92l-4.22,4.5-1.11-2.52,2.11-3.77,3.22,1.78Zm-9.55-.59c.25-.35,.62-.59,1.05-.67l3.01-.57-1.63,2.91-4.57,1.33,2.14-3Zm3.29,10.19l10.59-11.3c.06-.07,.16-.07,.23-.02l10.58,8.39-21.4,2.93Zm12.71,6.74c-.29-.13-.5-.4-.54-.71l-.76-5.57,11.53-1.58,.96,12.71-11.19-4.85Zm19.9-1.27l-6.73,5.84-1.02-13.5,2.7-13.07,6.29,3.99-.73,15.68c-.02,.41-.21,.8-.52,1.07Zm3.26-18.13l-.12-6.92,5.89,2.53c.47,.2,.86,.53,1.14,.95l2.44,3.71c.26,.39,.41,.85,.42,1.32l-9.77-1.6Z"/> </g> </g>
</svg>