<!DOCTYPE svg PUBLIC "-//W3C//DTD SVG 1.1//EN" "http://www.w3.org/Graphics/SVG/1.1/DTD/svg11.dtd">
<!-- Uploaded to: SVG Repo, www.svgrepo.com, Transformed by: SVG Repo Mixer Tools -->
<svg fill="#ffffff" width="64px" height="64px" viewBox="0 0 64 64" xmlns="http://www.w3.org/2000/svg">
<g id="SVGRepo_bgCarrier" stroke-width="0"/>
<g id="SVGRepo_tracerCarrier" stroke-linecap="round" stroke-linejoin="round"/>
<g id="SVGRepo_iconCarrier"> <g id="a"/> <g id="b"/> <g id="c"/> <g id="d"/> <g id="e"/> <g id="f"/> <g id="g"/> <g id="h"/> <g id="i"/> <g id="j"/> <g id="k"/> <g id="l"/> <g id="m"/> <g id="n"/> <g id="o"/> <g id="p"> <path d="M12.79,55.7l3.3,3.3c.65,.65,1.51,1,2.42,1H55.7c1.11,0,2.01-.9,2.01-2.01v-12.96c0-.82-.2-1.63-.58-2.36l-3.43-6.53c-.38-.72-.94-1.35-1.62-1.82l-19.64-13.51V5.69c0-.56-.27-1.08-.73-1.39-.46-.32-1.04-.39-1.56-.19l-10.78,4.09L8.58,4.11c-.52-.2-1.1-.13-1.56,.19s-.73,.84-.73,1.39v14.64c0,.92,.36,1.78,1,2.42l4.49,4.49v26.02c0,.92,.36,1.78,1,2.42Zm1-26.45l3.26,3.26c1.28,1.28,3.36,1.28,4.63,0l5.26-5.26-13.16,23.23V29.25Zm2.65-.18h5.87l-2.03,2.03c-.5,.5-1.31,.5-1.81,0l-2.03-2.03Zm19.15,28.93l20.13-12.19v12.19h-20.13Zm19.77-14.39s0,.05,.02,.07l-5.96,3.61,3.11-9.05,2.83,5.37Zm-4.41-7.63c.08,.05,.11,.14,.18,.2l-4.38,12.72-15.02,9.1h-13.21c-.38,0-.74-.15-1.01-.42l-3.3-3.3c-.07-.07-.06-.19-.11-.28L31.77,22.79l19.17,13.19ZM12.08,15.14l-3.79,3.79V8.47l3.79,6.67Zm-2.55-8.53l8.03,3.05-4.02,4.02-4.02-7.06Zm20.9,1.86v10.46l-3.79-3.79,3.79-6.67Zm-5.26,5.2l-4.02-4.02,8.03-3.05-4.02,7.07Zm-16.47,7.67h0l10.66-10.66,10.66,10.66-5.72,5.72H14.43l-5.72-5.72Z"/> </g> <g id="q"/> <g id="r"/> <g id="s"/> <g id="t"/> <g id="u"/> <g id="v"/> <g id="w"/> <g id="x"/> <g id="y"/> <g id="a`"/> <g id="aa"/> <g id="ab"/> <g id="ac"/> <g id="ad"/> <g id="ae"/> <g id="af"/> <g id="ag"/> <g id="ah"/> <g id="ai"/> <g id="aj"/> <g id="ak"/> <g id="al"/> <g id="am"/> <g id="an"/> <g id="ao"/> <g id="ap"/> <g id="aq"/> <g id="ar"/> <g id="as"/> <g id="at"/> <g id="au"/> <g id="av"/> <g id="aw"/> <g id="ax"/> </g>
</svg>