<!DOCTYPE svg PUBLIC "-//W3C//DTD SVG 1.1//EN" "http://www.w3.org/Graphics/SVG/1.1/DTD/svg11.dtd">
<!-- Uploaded to: SVG Repo, www.svgrepo.com, Transformed by: SVG Repo Mixer Tools -->
<svg fill="#ffffff" width="64px" height="64px" viewBox="0 0 64 64" xmlns="http://www.w3.org/2000/svg">
<g id="SVGRepo_bgCarrier" stroke-width="0"/>
<g id="SVGRepo_tracerCarrier" stroke-linecap="round" stroke-linejoin="round"/>
<g id="SVGRepo_iconCarrier"> <g id="a"/> <g id="b"/> <g id="c"/> <g id="d"/> <g id="e"/> <g id="f"/> <g id="g"/> <g id="h"/> <g id="i"/> <g id="j"/> <g id="k"/> <g id="l"/> <g id="m"/> <g id="n"/> <g id="o"/> <g id="p"/> <g id="q"/> <g id="r"/> <g id="s"/> <g id="t"/> <g id="u"/> <g id="v"/> <g id="w"/> <g id="x"/> <g id="y"/> <g id="a`"/> <g id="aa"/> <g id="ab"/> <g id="ac"/> <g id="ad"/> <g id="ae"/> <g id="af"/> <g id="ag"/> <g id="ah"/> <g id="ai"/> <g id="aj"/> <g id="ak"/> <g id="al"/> <g id="am"/> <g id="an"> <path d="M58.56,13.95l-6.97-3.58c-.23-.12-.47-.2-.71-.26l-1.38-2.5c-.18-.32-.51-.52-.88-.52h-4.94c-.16,0-.31,.04-.46,.11l-5.72,2.93c-.28,.14-.47,.4-.53,.71l-1.74,9.29c-.04,.19-.02,.38,.06,.56l3.32,8.13-30.56,4.56c-.98,.14-1.81,.84-2.11,1.79l-1.88,5.84c-.17,.54-.05,1.12,.33,1.54s.94,.61,1.5,.49l4.93-1.03,3.88,2.8-1.15,9.95c-.07,.54,.1,1.08,.45,1.48s.87,.64,1.42,.64h9.7c.58,0,1.09-.35,1.29-.9,.2-.54,.05-1.14-.37-1.5l-3.93-3.56,5.02-4.03,9.28,1.09,4.04,7.49c.47,.87,1.37,1.41,2.36,1.41h10.15c.57,0,1.07-.39,1.21-.95,.14-.56-.12-1.13-.63-1.4l-7.75-4.08,5.52-10.51c.38-.73,.58-1.55,.56-2.39l-.45-16.07h6.55c1.11,0,2.01-.9,2.01-2v-3.2c0-1-.55-1.9-1.44-2.35Zm-8.67,23.67c0,.18-.09,.34-.12,.51l-11.36,6.94,5.16-30.36,5.69-2.41,.15,8.22h0l.48,17.09Zm-1.17-27.26l-4.76,2.01,.56-3.28h3.5l.7,1.26Zm-11.47,9.85l1.6-8.52,3.51-1.8-.67,3.94h0l-2.07,12.18-2.37-5.8Zm1.55,10.61l-2.58,15.14-8.84-1.03-8.37-11.15,19.79-2.95Zm-31.32,6.11l2,3.33-3.29,.68,1.29-4.02Zm4.33,3.33l-2.98-4.97,7.25-1.08-1.08,8.35-3.19-2.3Zm11.69,14.64h-6.24l3.28-2.69,2.96,2.69Zm-7.79-1.31l2.2-17.95,7.55,10.06-9.74,7.89Zm34.21,1.31h-6.45l1.4-2.66,5.05,2.66Zm-6.36-4.47h0l-1.76,3.35-3.42-6.35,9.96-6.08-4.77,9.08Zm14.42-30.92h-6.6l-.13-7.05,6.38,3.27c.22,.11,.35,.33,.35,.57v3.2Z"/> </g> <g id="ao"/> <g id="ap"/> <g id="aq"/> <g id="ar"/> <g id="as"/> <g id="at"/> <g id="au"/> <g id="av"/> <g id="aw"/> <g id="ax"/> </g>
</svg>