<!DOCTYPE svg PUBLIC "-//W3C//DTD SVG 1.1//EN" "http://www.w3.org/Graphics/SVG/1.1/DTD/svg11.dtd">
<!-- Uploaded to: SVG Repo, www.svgrepo.com, Transformed by: SVG Repo Mixer Tools -->
<svg fill="#ffffff" width="64px" height="64px" viewBox="0 0 64 64" xmlns="http://www.w3.org/2000/svg">
<g id="SVGRepo_bgCarrier" stroke-width="0"/>
<g id="SVGRepo_tracerCarrier" stroke-linecap="round" stroke-linejoin="round"/>
<g id="SVGRepo_iconCarrier"> <g id="a"/> <g id="b"/> <g id="c"/> <g id="d"/> <g id="e"/> <g id="f"/> <g id="g"/> <g id="h"/> <g id="i"/> <g id="j"/> <g id="k"/> <g id="l"/> <g id="m"/> <g id="n"/> <g id="o"/> <g id="p"/> <g id="q"/> <g id="r"/> <g id="s"/> <g id="t"/> <g id="u"/> <g id="v"/> <g id="w"/> <g id="x"/> <g id="y"/> <g id="a`"> <path d="M60,31.47c0-.38-.08-1.31-.7-1.8-.33-.26-.74-.35-1.16-.26l-8.24,1.85-2.26-3.23c-.92-1.31-2.28-2.2-3.85-2.5l-6.48-1.26-2.44-4.98c-.74-1.52-2.5-2.24-4.1-1.67h0l-9.78,3.48-14.37-2.79c-.78-.15-1.55,.12-2.07,.72-.52,.6-.67,1.41-.41,2.16l7.96,22.76c.55,1.57,2.04,2.63,3.7,2.63h29.39c1.58,0,3.59-1.54,3.98-1.85,.05-.04,.1-.09,.14-.14l10.46-12.46c.15-.18,.24-.41,.23-.65Zm-24.67-6.69l-14.37,8.97,11.74-13.92c.13,.11,.29,.18,.36,.34l2.26,4.61Zm-13.47-1.87l8.04-2.86-11.36,13.47,3.32-10.61Zm-15.82-2.57s.08-.07,.14-.07c.01,0,.03,0,.04,0l2.59,.5-1.69,2.93-1.11-3.18c-.02-.07-.01-.13,.04-.19Zm1.95,5.86l2.9-5.02,8.88,1.72-6.1,19.49L8,26.2Zm39.84,17.02c-.73,.57-2.02,1.36-2.65,1.36H15.79c-.24,0-.43-.13-.65-.21l1.8-5.75,19.87-12.41,6.58,1.28c1.06,.21,1.98,.8,2.6,1.69l2.64,3.78,3.55,5.08-4.36,5.19Zm5.69-6.77l-2.39-3.42,6.47-1.45-4.08,4.87Z"/> </g> <g id="aa"/> <g id="ab"/> <g id="ac"/> <g id="ad"/> <g id="ae"/> <g id="af"/> <g id="ag"/> <g id="ah"/> <g id="ai"/> <g id="aj"/> <g id="ak"/> <g id="al"/> <g id="am"/> <g id="an"/> <g id="ao"/> <g id="ap"/> <g id="aq"/> <g id="ar"/> <g id="as"/> <g id="at"/> <g id="au"/> <g id="av"/> <g id="aw"/> <g id="ax"/> </g>
</svg>