<!DOCTYPE svg PUBLIC "-//W3C//DTD SVG 1.1//EN" "http://www.w3.org/Graphics/SVG/1.1/DTD/svg11.dtd">
<!-- Uploaded to: SVG Repo, www.svgrepo.com, Transformed by: SVG Repo Mixer Tools -->
<svg fill="#ffffff" width="64px" height="64px" viewBox="0 0 64 64" xmlns="http://www.w3.org/2000/svg">
<g id="SVGRepo_bgCarrier" stroke-width="0"/>
<g id="SVGRepo_tracerCarrier" stroke-linecap="round" stroke-linejoin="round"/>
<g id="SVGRepo_iconCarrier"> <g id="a"/> <g id="b"/> <g id="c"/> <g id="d"/> <g id="e"/> <g id="f"/> <g id="g"/> <g id="h"/> <g id="i"/> <g id="j"/> <g id="k"/> <g id="l"/> <g id="m"/> <g id="n"/> <g id="o"/> <g id="p"/> <g id="q"/> <g id="r"/> <g id="s"/> <g id="t"/> <g id="u"/> <g id="v"/> <g id="w"/> <g id="x"/> <g id="y"> <path d="M14.02,58.11c-.05,.45,.08,.89,.36,1.25,.32,.41,.81,.64,1.33,.64h25.3c1.64,0,3.06-1.11,3.46-2.69l5.29-20.82c.37-1.45,.32-2.97-.13-4.39L41.51,6.6c-.5-1.56-1.93-2.6-3.56-2.6H15.98c-.93,0-1.68,.75-1.68,1.68,0,.52,.25,1.02,.66,1.33h0l6.15,4.72-5.39,11.24c-.65,1.36-.88,2.87-.65,4.36l3.99,26.13-4.41,3.51c-.36,.28-.58,.69-.63,1.14Zm33.8-22.12l-5.29,20.82c-.18,.7-.8,1.18-1.52,1.18h-8.33l-4.52-12.78c-.35-.99-.41-2.05-.18-3.07l5.4-23.62,10.47,1.99,3.87,12.18c.34,1.07,.37,2.21,.1,3.3ZM39.6,7.21l3.55,11.15-21.08-4,4.01-8.36h11.87c.76,0,1.42,.49,1.65,1.21Zm-22.68-1.21h6.93l-1.86,3.88-5.07-3.88Zm.6,17.83l3.65-7.6,10.23,1.94-2.46,10.76-10.91,4.53-.98-6.43c-.17-1.09,0-2.2,.48-3.2Zm.82,11.66l10.05-4.17-2.38,10.39c-.32,1.39-.23,2.83,.24,4.18l4.29,12.11h-8.77l-.65-4.27-2.79-18.24Zm1.07,20.25l.35,2.26h-3.19l2.84-2.26Z"/> </g> <g id="a`"/> <g id="aa"/> <g id="ab"/> <g id="ac"/> <g id="ad"/> <g id="ae"/> <g id="af"/> <g id="ag"/> <g id="ah"/> <g id="ai"/> <g id="aj"/> <g id="ak"/> <g id="al"/> <g id="am"/> <g id="an"/> <g id="ao"/> <g id="ap"/> <g id="aq"/> <g id="ar"/> <g id="as"/> <g id="at"/> <g id="au"/> <g id="av"/> <g id="aw"/> <g id="ax"/> </g>
</svg>