<!DOCTYPE svg PUBLIC "-//W3C//DTD SVG 1.1//EN" "http://www.w3.org/Graphics/SVG/1.1/DTD/svg11.dtd">
<!-- Uploaded to: SVG Repo, www.svgrepo.com, Transformed by: SVG Repo Mixer Tools -->
<svg fill="#ffffff" width="64px" height="64px" viewBox="0 0 64 64" xmlns="http://www.w3.org/2000/svg">
<g id="SVGRepo_bgCarrier" stroke-width="0"/>
<g id="SVGRepo_tracerCarrier" stroke-linecap="round" stroke-linejoin="round"/>
<g id="SVGRepo_iconCarrier"> <g id="a"/> <g id="b"/> <g id="c"/> <g id="d"/> <g id="e"/> <g id="f"/> <g id="g"/> <g id="h"/> <g id="i"/> <g id="j"/> <g id="k"/> <g id="l"/> <g id="m"/> <g id="n"/> <g id="o"/> <g id="p"/> <g id="q"/> <g id="r"/> <g id="s"/> <g id="t"/> <g id="u"/> <g id="v"/> <g id="w"/> <g id="x"> <path d="M6.01,38.1h12.56v1.68c0,.94,.44,1.85,1.19,2.42l.94,.72-1.2,8.68c-.08,.57,.18,1.13,.67,1.43,.48,.31,1.1,.3,1.58-.02l6.8-4.52h16.74l6.8,4.52c.24,.16,.52,.24,.8,.24s.54-.07,.78-.22c.48-.3,.75-.87,.67-1.43l-1.2-8.68,.94-.72c.74-.58,1.19-1.48,1.19-2.42h0V21.93h0s0-.08,0-.12l-.55-4.52,4.75-3.5c.47-.34,.67-.93,.51-1.49-.15-.56-.63-.96-1.2-1.01l-5.65-.55c-.28-.02-.56,.06-.77,.25l-4.89,4.4-1.25-.97c-.18-.14-.39-.21-.61-.21h-15.15l-15.78-3c-.56-.1-1.13,.1-1.49,.54-.36,.44-.45,1.04-.24,1.57l2.43,5.97-5.01,5.15-4.33,.07c-1.1,.02-2,.93-2,2.03v9.54c0,1.11,.9,2.01,2.01,2.01ZM30.78,16.22h14.46l8.01,6.2v17.35c0,.33-.15,.64-.41,.84l-7.6,5.88H28.58l-7.6-5.88c-.26-.2-.41-.51-.41-.84v-12.34l10.21-11.21Zm21.86,.74h0l.33,2.71-3.91-3.03,3.19-2.87,.39,3.19ZM21.64,50.68l.88-6.35,4.01,3.1-4.88,3.25Zm25.65-3.25l4.01-3.1,.88,6.35-4.88-3.25Zm7.12-32.42l-.26-2.16,2.82,.28-2.55,1.88Zm-39.33-1.68l13.31,2.53-8.49,9.33-2.45-6.05-2.36-5.81Zm1.08,7.98l2.4,5.92v8.86H6v-4.35l10.17-10.43Zm-7.81,5.16l-2.33,2.39v-2.36l2.33-.04Z"/> </g> <g id="y"/> <g id="a`"/> <g id="aa"/> <g id="ab"/> <g id="ac"/> <g id="ad"/> <g id="ae"/> <g id="af"/> <g id="ag"/> <g id="ah"/> <g id="ai"/> <g id="aj"/> <g id="ak"/> <g id="al"/> <g id="am"/> <g id="an"/> <g id="ao"/> <g id="ap"/> <g id="aq"/> <g id="ar"/> <g id="as"/> <g id="at"/> <g id="au"/> <g id="av"/> <g id="aw"/> <g id="ax"/> </g>
</svg>