<!DOCTYPE svg PUBLIC "-//W3C//DTD SVG 1.1//EN" "http://www.w3.org/Graphics/SVG/1.1/DTD/svg11.dtd">
<!-- Uploaded to: SVG Repo, www.svgrepo.com, Transformed by: SVG Repo Mixer Tools -->
<svg fill="#ffffff" width="64px" height="64px" viewBox="0 0 64 64" xmlns="http://www.w3.org/2000/svg">
<g id="SVGRepo_bgCarrier" stroke-width="0"/>
<g id="SVGRepo_tracerCarrier" stroke-linecap="round" stroke-linejoin="round"/>
<g id="SVGRepo_iconCarrier"> <g id="a"/> <g id="b"/> <g id="c"/> <g id="d"/> <g id="e"/> <g id="f"/> <g id="g"/> <g id="h"/> <g id="i"/> <g id="j"/> <g id="k"/> <g id="l"/> <g id="m"/> <g id="n"/> <g id="o"/> <g id="p"/> <g id="q"/> <g id="r"/> <g id="s"/> <g id="t"/> <g id="u"/> <g id="v"/> <g id="w"> <path d="M58.55,45.06l1.37-4.36c.13-.41,.09-.84-.11-1.22-.2-.38-.53-.66-.93-.78-.26-.09-.54-.1-.81-.04l-6.44,1.36L30.81,23.69c-.79-.62-1.85-.74-2.76-.33l-2.08,.96,.04-7.75c0-1.05-.7-1.98-1.72-2.25l-7.77-2.08c-.88-.24-1.8-.13-2.61,.29l-9.2,4.83c-.31,.16-.54,.44-.65,.78-.11,.34-.07,.7,.09,1.01,.2,.38,.57,.64,1,.7l6.99,.89-2.89,10.8c-.24,.88-.11,1.84,.36,2.63l6.73,11.43-1.89,4.95c-.14,.37-.05,.78,.22,1.06,.19,.2,.45,.3,.71,.3,.11,0,.23-.02,.34-.06l14.23-5.1h26.32c1.05,0,1.96-.67,2.28-1.67Zm-1.78-1.01l-3.09-2.42,4.13-.87-1.04,3.3ZM28.88,25.18c.23-.11,.49-.08,.69,.08l24.82,19.47H30.56l-4.44-18.28,2.76-1.27ZM7.54,18.12l6.17-3.24-1.04,3.9-5.12-.65Zm8.43-3.96s.01,0,.02,0l7.77,2.08c.14,.04,.24,.17,.24,.31l-.04,8.68-12.49,5.74L15.98,14.17Zm-4.6,19.05l11.77-5.41-5.89,15.38-5.88-9.98Zm5.72,16l1.29-3.36,6.36-16.61,3.85,15.86-11.5,4.12Z"/> </g> <g id="x"/> <g id="y"/> <g id="a`"/> <g id="aa"/> <g id="ab"/> <g id="ac"/> <g id="ad"/> <g id="ae"/> <g id="af"/> <g id="ag"/> <g id="ah"/> <g id="ai"/> <g id="aj"/> <g id="ak"/> <g id="al"/> <g id="am"/> <g id="an"/> <g id="ao"/> <g id="ap"/> <g id="aq"/> <g id="ar"/> <g id="as"/> <g id="at"/> <g id="au"/> <g id="av"/> <g id="aw"/> <g id="ax"/> </g>
</svg>