<!DOCTYPE svg PUBLIC "-//W3C//DTD SVG 1.1//EN" "http://www.w3.org/Graphics/SVG/1.1/DTD/svg11.dtd">
<!-- Uploaded to: SVG Repo, www.svgrepo.com, Transformed by: SVG Repo Mixer Tools -->
<svg fill="#ffffff" width="64px" height="64px" viewBox="0 0 64 64" xmlns="http://www.w3.org/2000/svg">
<g id="SVGRepo_bgCarrier" stroke-width="0"/>
<g id="SVGRepo_tracerCarrier" stroke-linecap="round" stroke-linejoin="round"/>
<g id="SVGRepo_iconCarrier"> <g id="a"/> <g id="b"/> <g id="c"/> <g id="d"/> <g id="e"/> <g id="f"/> <g id="g"/> <g id="h"/> <g id="i"/> <g id="j"/> <g id="k"/> <g id="l"/> <g id="m"/> <g id="n"/> <g id="o"/> <g id="p"/> <g id="q"/> <g id="r"/> <g id="s"> <path d="M58.56,14.13l-.81-.41,1.46-4.35c.25-.74,.02-1.54-.59-2.03-.6-.49-1.43-.56-2.11-.17l-5.47,3.17c-.25-.07-.51-.12-.77-.13-.47-.02-.94,.07-1.36,.24l-5.41,2.29-4.96,1.93c-1.02,.4-1.77,1.27-2.01,2.33l-1.61,7.09c-.25,1.08,.08,2.19,.87,2.97l2.09,2.05-29.83,4.45c-.98,.14-1.81,.84-2.11,1.79l-1.87,5.84c-.17,.54-.05,1.12,.33,1.54,.38,.42,.94,.61,1.5,.49l4.93-1.03,3.88,2.8-1.15,9.95c-.07,.54,.1,1.08,.45,1.48,.36,.41,.87,.64,1.42,.64h9.7c.58,0,1.08-.35,1.29-.89,.2-.54,.05-1.14-.37-1.5l-3.93-3.57,5.02-4.03,9.28,1.09,4.04,7.49c.47,.87,1.37,1.41,2.36,1.41h10.15c.57,0,1.07-.39,1.21-.95,.14-.56-.12-1.13-.63-1.41l-7.75-4.08,5.52-10.51c.38-.73,.58-1.55,.56-2.39l-.45-16.07h6.55c1.1,0,2-.9,2-2v-3.2c0-1-.55-1.9-1.44-2.35Zm-1.36-5.05l-1.25,3.71-2.74-1.4,3.98-2.31Zm-7.94,3.4l.15,8.22h0l.48,17.09c0,.18-.09,.34-.12,.51l-11.36,6.94,2.6-15.27h0l2.44-14.33c.08-.47,.39-.87,.84-1.06l4.98-2.11Zm-13.04,33.66l-8.84-1.04-8.37-11.16,19.79-2.95-2.58,15.15Zm2.26-28.69c.09-.42,.39-.76,.79-.91l2.13-.83-1.07,6.27-3.25,1.66,1.4-6.19Zm1.43,6.99l-.56,3.31-2.03-1.99,2.59-1.32ZM7.49,37.11l2,3.33-3.29,.68,1.29-4.02Zm4.33,3.33l-2.98-4.97,7.25-1.08-1.08,8.35-3.19-2.3Zm11.69,14.64h-6.24l3.28-2.69,2.96,2.69Zm-7.79-1.31l2.2-17.95,7.55,10.06-9.74,7.89Zm34.21,1.31h-6.45l1.4-2.66,5.05,2.66Zm-8.12-1.13l-3.43-6.35,9.96-6.08-6.53,12.43ZM58,19.69h-6.6l-.13-7.05,6.38,3.27c.22,.11,.35,.33,.35,.58v3.2Z"/> </g> <g id="t"/> <g id="u"/> <g id="v"/> <g id="w"/> <g id="x"/> <g id="y"/> <g id="a`"/> <g id="aa"/> <g id="ab"/> <g id="ac"/> <g id="ad"/> <g id="ae"/> <g id="af"/> <g id="ag"/> <g id="ah"/> <g id="ai"/> <g id="aj"/> <g id="ak"/> <g id="al"/> <g id="am"/> <g id="an"/> <g id="ao"/> <g id="ap"/> <g id="aq"/> <g id="ar"/> <g id="as"/> <g id="at"/> <g id="au"/> <g id="av"/> <g id="aw"/> <g id="ax"/> </g>
</svg>