<!DOCTYPE svg PUBLIC "-//W3C//DTD SVG 1.1//EN" "http://www.w3.org/Graphics/SVG/1.1/DTD/svg11.dtd">
<!-- Uploaded to: SVG Repo, www.svgrepo.com, Transformed by: SVG Repo Mixer Tools -->
<svg fill="#ffffff" width="64px" height="64px" viewBox="0 0 64 64" xmlns="http://www.w3.org/2000/svg">
<g id="SVGRepo_bgCarrier" stroke-width="0"/>
<g id="SVGRepo_tracerCarrier" stroke-linecap="round" stroke-linejoin="round"/>
<g id="SVGRepo_iconCarrier"> <g id="a"/> <g id="b"/> <g id="c"/> <g id="d"/> <g id="e"/> <g id="f"/> <g id="g"/> <g id="h"/> <g id="i"/> <g id="j"/> <g id="k"/> <g id="l"/> <g id="m"/> <g id="n"/> <g id="o"/> <g id="p"/> <g id="q"/> <g id="r"/> <g id="s"/> <g id="t"/> <g id="u"/> <g id="v"/> <g id="w"/> <g id="x"/> <g id="y"/> <g id="a`"/> <g id="aa"/> <g id="ab"/> <g id="ac"/> <g id="ad"/> <g id="ae"> <path d="M12.45,43.08c.55,.79,1.46,1.26,2.42,1.26h9.32l1.48,5.38c.33,1.18,1.88,1.49,2.63,.5l4.43-5.88h6.63c.92,0,1.79-.36,2.44-1.01l10.78-10.78c.7-.7,.97-1.72,.71-2.67l-1.89-7.04,7.61-2.33c.55-.17,.95-.65,1-1.23,.05-.58-.25-1.12-.77-1.38l-10.09-5.12c-.33-.17-.69-.23-1.05-.18-.73,.1-1.34,.64-1.52,1.36l-3.22,13.1L10.66,18.5c-1.04-.27-2.13,.27-2.55,1.26l-3.88,9.23c-.38,.91-.27,1.93,.29,2.73l7.93,11.35Zm1.64-1.15l-7-10.02,14.66,3.56,1.88,6.87H14.87c-.31,0-.6-.15-.78-.41Zm13.23,6.26l-2.89-10.52,6.44,5.8-3.55,4.72Zm23.56-27.29l-1.55-5.79,7.7,3.91-6.15,1.88Zm-3.06-3.68l3.53,13.17c.07,.26,0,.55-.2,.74l-8.97,8.97,5.63-22.88Zm-37.87,3.32c.03-.07,.09-.11,.16-.11,.01,0,.03,0,.04,0l32.71,8.55-3.26,13.24c-.09,.02-.16,.11-.26,.11h-6.74l-9.37-8.44c-.12-.11-.27-.19-.43-.23L6.13,29.62l3.82-9.09Z"/> </g> <g id="af"/> <g id="ag"/> <g id="ah"/> <g id="ai"/> <g id="aj"/> <g id="ak"/> <g id="al"/> <g id="am"/> <g id="an"/> <g id="ao"/> <g id="ap"/> <g id="aq"/> <g id="ar"/> <g id="as"/> <g id="at"/> <g id="au"/> <g id="av"/> <g id="aw"/> <g id="ax"/> </g>
</svg>